# xmcd
#
# Track frame offsets: 
#        150
#        18509
#        34870
#        50968
#        68726
#        88631
#        107841
#        124045
#        144835
#        164926
#        184285
#
# Disc length: 2739 seconds
#
# Revision: 3
# Processed by: cddbd v1.5.2PL0 Copyright (c) Steve Scherf et al.
# Submitted via: ExactAudioCopyFreeDBPlugin 1.0
#
DISCID=a00ab10b
DTITLE=Kip Moore - Up All Night
DYEAR=2012
DGENRE=Country
TTITLE0=Drive Me Crazy
TTITLE1=Beer Money
TTITLE2=Somethin' 'Bout a Truck
TTITLE3=Everything but You
TTITLE4=Crazy One More Time
TTITLE5=Where You Are Tonight
TTITLE6=Hey Pretty Girl
TTITLE7=Reckless (Still Growin' Up)
TTITLE8=Up All Night
TTITLE9=Fly Again
TTITLE10=Faith When I Fall
EXTD=
EXTT0=
EXTT1=
EXTT2=
EXTT3=
EXTT4=
EXTT5=
EXTT6=
EXTT7=
EXTT8=
EXTT9=
EXTT10=
PLAYORDER=
